<svg width="105" height="36" fill="none" xmlns="http://www.w3.org/2000/svg">
  <rect width="105" height="36" rx="4" fill="#000"/>
  <path d="M23.64 24.62c1.06 0 2.01-.22 2.85-.67.85-.45 1.51-1.1 2-1.94.5-.86.75-1.88.75-3.07V9h-1.97v6.55h-.05a4.53 4.53 0 00-3.9-2.17c-1 0-1.91.22-2.72.67a4.97 4.97 0 00-1.91 1.92 5.84 5.84 0 00-.69 2.9c0 1.18.24 2.2.7 3.08a5.06 5.06 0 002 1.98c.86.46 1.84.7 2.94.7zm0-1.66c-.67 0-1.29-.16-1.84-.49a3.58 3.58 0 01-1.31-1.36c-.33-.6-.5-1.3-.5-2.11 0-.79.16-1.47.48-2.06a3.5 3.5 0 013.15-1.9 3.5 3.5 0 013.13 1.88c.33.59.5 1.29.5 2.1 0 .8-.17 1.5-.5 2.09a3.43 3.43 0 01-3.1 1.85zM37.85 24.37a7.51 7.51 0 01-3.21-.65 5.38 5.38 0 01-2.17-1.88A5.2 5.2 0 0131.7 19c0-1.07.22-2.02.66-2.86a5.09 5.09 0 011.85-2.02c.78-.5 1.7-.74 2.74-.74a5.1 5.1 0 012.81.71 4.4 4.4 0 011.7 1.94 6.32 6.32 0 01.5 3.62H33.8a3.17 3.17 0 002.08 2.72c.59.22 1.23.34 1.93.34h2.85v1.66h-2.8zm-4.07-6.09h6.24c0-.46-.1-.94-.28-1.45-.18-.5-.5-.93-.94-1.28a2.82 2.82 0 00-1.85-.55c-.65 0-1.22.17-1.7.5-.45.33-.8.74-1.06 1.25-.25.49-.38 1-.41 1.53zM50.07 13.38c-1.06 0-2.01.22-2.86.67a5.06 5.06 0 00-2.01 1.96 6 6 0 00-.73 3.05V29h1.97v-6.55h.04c.36.65.9 1.17 1.6 1.58.7.4 1.46.6 2.3.6 1 0 1.91-.23 2.71-.68a4.82 4.82 0 001.9-1.9c.48-.83.72-1.8.72-2.92 0-1.18-.25-2.2-.73-3.06a4.85 4.85 0 00-2-2 5.96 5.96 0 00-2.91-.7zm0 1.66a3.5 3.5 0 013.15 1.85c.33.6.5 1.3.5 2.11 0 .79-.17 1.47-.5 2.06a3.53 3.53 0 01-3.13 1.9c-.67 0-1.29-.16-1.85-.49a3.58 3.58 0 01-1.3-1.36 4.54 4.54 0 01-.48-2.13c0-.8.16-1.5.47-2.09a3.5 3.5 0 013.13-1.85zM58.23 24.37V9h1.97v15.37h-1.97zM68.49 24.62c-1.12 0-2.1-.24-2.98-.74a5.69 5.69 0 01-2.04-2.02 5.7 5.7 0 01-.73-2.86 5.47 5.47 0 012.77-4.86c.87-.5 1.86-.76 2.98-.76a5.72 5.72 0 015 2.78c.5.84.75 1.79.75 2.84a5.57 5.57 0 01-2.79 4.88c-.86.5-1.84.74-2.96.74zm0-1.66a3.63 3.63 0 003.28-1.94c.32-.6.47-1.28.47-2.02s-.15-1.41-.47-2a3.65 3.65 0 00-1.3-1.43 3.63 3.63 0 00-1.98-.53c-.74 0-1.4.18-1.97.53-.56.35-1 .83-1.31 1.43a4.18 4.18 0 00-.47 2c0 .74.15 1.42.47 2.02.31.59.75 1.06 1.3 1.41a3.7 3.7 0 001.98.53zM80.9 28.64v-4.1a5.06 5.06 0 01-2.14-.8 4.58 4.58 0 01-2-3.9v-6.2h2v6.18c0 .65.15 1.2.43 1.69a3.12 3.12 0 002.68 1.45 3.22 3.22 0 002.7-1.45c.3-.48.46-1.04.46-1.69v-6.19H87v6.21a4.7 4.7 0 01-.54 2.28c-.34.66-.83 1.2-1.45 1.62-.62.4-1.33.67-2.13.8v4.1h-1.97z" fill="#fff"/>
  <rect width="105" height="36" rx="4" fill="#000"/>
  <path d="M23.64 25.62c1.06 0 2.01-.22 2.85-.67.85-.45 1.51-1.1 2-1.94.5-.86.75-1.88.75-3.07V10h-1.97v6.55h-.05a4.53 4.53 0 00-3.9-2.17c-1 0-1.91.22-2.72.67a4.97 4.97 0 00-1.91 1.92 5.84 5.84 0 00-.69 2.9c0 1.18.24 2.2.7 3.08a5.06 5.06 0 002 1.98c.86.46 1.84.7 2.94.7zm0-1.66c-.67 0-1.29-.16-1.84-.49a3.58 3.58 0 01-1.31-1.36c-.33-.6-.5-1.3-.5-2.11 0-.79.16-1.47.48-2.06a3.5 3.5 0 013.15-1.9 3.5 3.5 0 013.13 1.88c.33.59.5 1.29.5 2.1 0 .8-.17 1.5-.5 2.09a3.43 3.43 0 01-3.1 1.85zM37.85 25.37a7.51 7.51 0 01-3.21-.65 5.38 5.38 0 01-2.17-1.88A5.2 5.2 0 0131.7 20c0-1.07.22-2.02.66-2.86a5.09 5.09 0 011.85-2.02c.78-.5 1.7-.74 2.74-.74a5.1 5.1 0 012.81.71 4.4 4.4 0 011.7 1.94 6.32 6.32 0 01.5 3.62H33.8a3.17 3.17 0 002.08 2.72c.59.22 1.23.34 1.93.34h2.85v1.66h-2.8zm-4.07-6.09h6.24c0-.46-.1-.94-.28-1.45-.18-.5-.5-.93-.94-1.28a2.82 2.82 0 00-1.85-.55c-.65 0-1.22.17-1.7.5-.45.33-.8.74-1.06 1.25-.25.49-.38 1-.41 1.53zM50.07 14.38c-1.06 0-2.01.22-2.86.67a5.06 5.06 0 00-2.01 1.96 6 6 0 00-.73 3.05V30h1.97v-6.55h.04c.36.65.9 1.17 1.6 1.58.7.4 1.46.6 2.3.6 1 0 1.91-.23 2.71-.68a4.82 4.82 0 001.9-1.9c.48-.83.72-1.8.72-2.92 0-1.18-.25-2.2-.73-3.06a4.85 4.85 0 00-2-2 5.96 5.96 0 00-2.91-.7zm0 1.66a3.5 3.5 0 013.15 1.85c.33.6.5 1.3.5 2.11 0 .79-.17 1.47-.5 2.06a3.53 3.53 0 01-3.13 1.9c-.67 0-1.29-.16-1.85-.49a3.58 3.58 0 01-1.3-1.36 4.54 4.54 0 01-.48-2.13c0-.8.16-1.5.47-2.09a3.5 3.5 0 013.13-1.85zM58.23 25.37V10h1.97v15.37h-1.97zM68.49 25.62c-1.12 0-2.1-.24-2.98-.74a5.69 5.69 0 01-2.04-2.02 5.7 5.7 0 01-.73-2.86 5.47 5.47 0 012.77-4.86c.87-.5 1.86-.76 2.98-.76a5.72 5.72 0 015 2.78c.5.84.75 1.79.75 2.84a5.57 5.57 0 01-2.79 4.88c-.86.5-1.84.74-2.96.74zm0-1.66a3.63 3.63 0 003.28-1.94c.32-.6.47-1.28.47-2.02s-.15-1.41-.47-2a3.65 3.65 0 00-1.3-1.43 3.63 3.63 0 00-1.98-.53c-.74 0-1.4.18-1.97.53-.56.35-1 .83-1.31 1.43a4.18 4.18 0 00-.47 2c0 .74.15 1.42.47 2.02.31.59.75 1.06 1.3 1.41a3.7 3.7 0 001.98.53zM80.9 29.64v-4.1a5.06 5.06 0 01-2.14-.8 4.58 4.58 0 01-2-3.9v-6.2h2v6.18c0 .65.15 1.2.43 1.69a3.12 3.12 0 002.68 1.45 3.22 3.22 0 002.7-1.45c.3-.48.46-1.04.46-1.69v-6.19H87v6.21a4.7 4.7 0 01-.54 2.28c-.34.66-.83 1.2-1.45 1.62-.62.4-1.33.67-2.13.8v4.1h-1.97z" fill="#fff"/>
</svg>
