<svg version="1.1" viewBox="0.0 0.0 80.0 50.0" fill="none" stroke="none" stroke-linecap="square" stroke-miterlimit="10" xmlns:xlink="http://www.w3.org/1999/xlink" xmlns="http://www.w3.org/2000/svg"><clipPath id="p.0"><path d="m0 0l80.0 0l0 50.0l-80.0 0l0 -50.0z" clip-rule="nonzero"/></clipPath><g clip-path="url(#p.0)"><path fill="#000000" fill-opacity="0.0" d="m0 0l80.0 0l0 50.0l-80.0 0z" fill-rule="evenodd"/><path fill="#000000" fill-opacity="0.0" d="m-1.8740157 0l83.74803 0l0 44.188976l-83.74803 0z" fill-rule="evenodd"/><path fill="#000000" d="m62.89427 31.478867l-11.875 0l-6.546875 17.015625l-13.9375 0l17.8125 -45.828125l28.59375 0l-6.375 11.734375l-12.90625 0l-2.34375 6.15625l11.890625 0l-4.3125 10.921875zm-34.5 16.796875l-30.390625 -3.296875l31.671875 0l-1.28125 3.296875zm5.5 -14.15625l-30.40625 -3.296875l31.6875 0l-1.28125 3.296875zm2.734375 -7.03125l-30.390625 -3.3125l31.671875 0l-1.28125 3.3125zm2.75 -7.046875l-30.390625 -3.296875l31.671875 0l-1.28125 3.296875zm2.734375 -7.03125l-30.375 -3.3125l31.59375 0l-1.21875 3.3125zm-10.96875 28.15625l-30.375 -3.296875l31.671875 0l-1.296875 3.296875zm13.65625 -35.203125l-30.34375 -3.296875l31.609375 0l-1.265625 3.296875z" fill-rule="nonzero"/></g></svg>